<?xml version="1.0" encoding="UTF-8" standalone="no"?>
<!DOCTYPE svg PUBLIC "-//W3C//DTD SVG 1.1//EN" "http://www.w3.org/Graphics/SVG/1.1/DTD/svg11.dtd">
<!-- Generated by graphviz version 2.38.0 (20140413.2041)
 -->
<!-- Title: model Pages: 1 -->
<svg width="973pt" height="273pt" viewBox="0.00 0.00 973.24 273.00" xmlns="http://www.w3.org/2000/svg" xmlns:xlink="http://www.w3.org/1999/xlink">
<g id="graph0" class="graph" transform="scale(1 1) rotate(0) translate(4 269)">
<title>model</title>
<polygon fill="white" stroke="none" points="-4,4 -4,-269 969.244,-269 969.244,4 -4,4"/>
<!-- start_App_FindMyRepresentatives -->
<g id="node1" class="node"><title>start_App_FindMyRepresentatives</title>
<g id="a_node1"><a xlink:title="Class App, SM FindMyRepresentatives, State start">
<ellipse fill="black" stroke="black" cx="242.75" cy="-257.8" rx="7.2" ry="7.2"/>
</a>
</g>
</g>
<!-- App_FindMyRepresentatives_waitingForInput -->
<g id="node2" class="node"><title>App_FindMyRepresentatives_waitingForInput</title>
<g id="a_node2"><a xlink:title="Class App, SM FindMyRepresentatives, State waitingForInput">
<path fill="none" stroke="black" d="M284.238,-213.6C284.238,-213.6 201.263,-213.6 201.263,-213.6 195.263,-213.6 189.263,-207.6 189.263,-201.6 189.263,-201.6 189.263,-189.6 189.263,-189.6 189.263,-183.6 195.263,-177.6 201.263,-177.6 201.263,-177.6 284.238,-177.6 284.238,-177.6 290.238,-177.6 296.238,-183.6 296.238,-189.6 296.238,-189.6 296.238,-201.6 296.238,-201.6 296.238,-207.6 290.238,-213.6 284.238,-213.6"/>
<text text-anchor="middle" x="242.75" y="-191.4" font-family="Times,serif" font-size="14.00">waitingForInput</text>
</a>
</g>
</g>
<!-- start_App_FindMyRepresentatives&#45;&gt;App_FindMyRepresentatives_waitingForInput -->
<g id="edge1" class="edge"><title>start_App_FindMyRepresentatives-&gt;App_FindMyRepresentatives_waitingForInput</title>
<g id="a_edge1"><a xlink:title="start to waitingForInput">
<path fill="none" stroke="black" d="M242.75,-250.358C242.75,-243.987 242.75,-233.797 242.75,-223.993"/>
<polygon fill="black" stroke="black" points="246.25,-223.705 242.75,-213.705 239.25,-223.705 246.25,-223.705"/>
</a>
</g>
</g>
<!-- App_FindMyRepresentatives_waitingForInput&#45;&gt;App_FindMyRepresentatives_waitingForInput -->
<g id="edge2" class="edge"><title>App_FindMyRepresentatives_waitingForInput-&gt;App_FindMyRepresentatives_waitingForInput</title>
<g id="a_edge2"><a xlink:title="From waitingForInput to waitingForInput on inputPostalCode&#xD;Guard:  [!validlyFormattedPostalCode]">
<path fill="none" stroke="black" d="M296.378,-197.75C306.825,-197.5 314.244,-196.784 314.244,-195.6 314.244,-194.86 311.346,-194.303 306.622,-193.928"/>
<polygon fill="black" stroke="black" points="306.53,-190.42 296.378,-193.45 306.204,-197.412 306.53,-190.42"/>
</a>
</g>
<text text-anchor="middle" x="449.365" y="-191.4" font-family="Times,serif" font-size="14.00">inputPostalCode [!validlyFormattedPostalCode]</text>
</g>
<!-- App_FindMyRepresentatives_waitingForInput&#45;&gt;App_FindMyRepresentatives_waitingForInput -->
<g id="edge3" class="edge"><title>App_FindMyRepresentatives_waitingForInput-&gt;App_FindMyRepresentatives_waitingForInput</title>
<g id="a_edge3"><a xlink:title="From waitingForInput to waitingForInput on inputPostalCode&#xD;Guard:  [noInternet]">
<path fill="none" stroke="black" d="M296.603,-198.676C394.115,-201.313 584.486,-200.287 584.486,-195.6 584.486,-191.068 406.547,-189.959 306.612,-192.273"/>
<polygon fill="black" stroke="black" points="306.512,-188.775 296.603,-192.524 306.687,-195.772 306.512,-188.775"/>
</a>
</g>
<text text-anchor="middle" x="665.94" y="-191.4" font-family="Times,serif" font-size="14.00">inputPostalCode [noInternet]</text>
</g>
<!-- App_FindMyRepresentatives_waitingForInput&#45;&gt;App_FindMyRepresentatives_waitingForInput -->
<g id="edge4" class="edge"><title>App_FindMyRepresentatives_waitingForInput-&gt;App_FindMyRepresentatives_waitingForInput</title>
<g id="a_edge4"><a xlink:title="From waitingForInput to waitingForInput on getDeviceLocation&#xD;Guard:  [noLocation]">
<path fill="none" stroke="black" d="M296.415,-199.495C428.157,-204.325 747.394,-203.027 747.394,-195.6 747.394,-188.362 444.163,-186.945 306.805,-191.349"/>
<polygon fill="black" stroke="black" points="306.289,-187.865 296.415,-191.705 306.529,-194.861 306.289,-187.865"/>
</a>
</g>
<text text-anchor="middle" x="838.941" y="-191.4" font-family="Times,serif" font-size="14.00">getDeviceLocation [noLocation]</text>
</g>
<!-- App_FindMyRepresentatives_loadingResults -->
<g id="node3" class="node"><title>App_FindMyRepresentatives_loadingResults</title>
<g id="a_node3"><a xlink:title="Class App, SM FindMyRepresentatives, State loadingResults">
<path fill="none" stroke="black" d="M280.468,-124.8C280.468,-124.8 205.033,-124.8 205.033,-124.8 199.033,-124.8 193.033,-118.8 193.033,-112.8 193.033,-112.8 193.033,-100.8 193.033,-100.8 193.033,-94.8 199.033,-88.8 205.033,-88.8 205.033,-88.8 280.468,-88.8 280.468,-88.8 286.468,-88.8 292.468,-94.8 292.468,-100.8 292.468,-100.8 292.468,-112.8 292.468,-112.8 292.468,-118.8 286.468,-124.8 280.468,-124.8"/>
<text text-anchor="middle" x="242.75" y="-102.6" font-family="Times,serif" font-size="14.00">loadingResults</text>
</a>
</g>
</g>
<!-- App_FindMyRepresentatives_waitingForInput&#45;&gt;App_FindMyRepresentatives_loadingResults -->
<g id="edge8" class="edge"><title>App_FindMyRepresentatives_waitingForInput-&gt;App_FindMyRepresentatives_loadingResults</title>
<g id="a_edge8"><a xlink:title="From waitingForInput to loadingResults on inputPostalCode&#xD;Guard:  [validlyFormattedPostalCode]">
<path fill="none" stroke="black" d="M259.557,-177.423C263.7,-172.125 267.571,-165.992 269.75,-159.6 272.159,-152.533 272.159,-149.867 269.75,-142.8 268.661,-139.604 267.148,-136.473 265.39,-133.478"/>
<polygon fill="black" stroke="black" points="268.101,-131.243 259.557,-124.977 262.329,-135.203 268.101,-131.243"/>
</a>
</g>
<text text-anchor="middle" x="404.541" y="-147" font-family="Times,serif" font-size="14.00">inputPostalCode [validlyFormattedPostalCode]</text>
</g>
<!-- App_FindMyRepresentatives_waitingForInput&#45;&gt;App_FindMyRepresentatives_loadingResults -->
<g id="edge9" class="edge"><title>App_FindMyRepresentatives_waitingForInput-&gt;App_FindMyRepresentatives_loadingResults</title>
<g id="a_edge9"><a xlink:title="From waitingForInput to loadingResults on getDeviceLocation&#xD;Guard:  [locationApproved]">
<path fill="none" stroke="black" d="M189.065,-193.956C129.793,-191.972 39.8782,-184.761 18.3371,-159.6 13.4812,-153.928 13.4812,-148.472 18.3371,-142.8 39.1547,-118.484 123.831,-110.933 182.992,-108.663"/>
<polygon fill="black" stroke="black" points="183.113,-112.161 192.987,-108.319 182.872,-105.165 183.113,-112.161"/>
</a>
</g>
<text text-anchor="middle" x="128.957" y="-147" font-family="Times,serif" font-size="14.00">getDeviceLocation [locationApproved]</text>
</g>
<!-- App_FindMyRepresentatives_loadingResults&#45;&gt;App_FindMyRepresentatives_waitingForInput -->
<g id="edge5" class="edge"><title>App_FindMyRepresentatives_loadingResults-&gt;App_FindMyRepresentatives_waitingForInput</title>
<g id="a_edge5"><a xlink:title="From loadingResults to waitingForInput on back">
<path fill="none" stroke="black" d="M242.75,-124.913C242.75,-137.031 242.75,-153.535 242.75,-167.44"/>
<polygon fill="black" stroke="black" points="239.25,-167.451 242.75,-177.451 246.25,-167.451 239.25,-167.451"/>
</a>
</g>
<text text-anchor="middle" x="255.965" y="-147" font-family="Times,serif" font-size="14.00">back</text>
</g>
<!-- App_FindMyRepresentatives_displayingResults -->
<g id="node4" class="node"><title>App_FindMyRepresentatives_displayingResults</title>
<g id="a_node4"><a xlink:title="Class App, SM FindMyRepresentatives, State displayingResults">
<path fill="none" stroke="black" d="M542.304,-36C542.304,-36 451.197,-36 451.197,-36 445.197,-36 439.197,-30 439.197,-24 439.197,-24 439.197,-12 439.197,-12 439.197,-6 445.197,-0 451.197,-0 451.197,-0 542.304,-0 542.304,-0 548.304,-0 554.304,-6 554.304,-12 554.304,-12 554.304,-24 554.304,-24 554.304,-30 548.304,-36 542.304,-36"/>
<text text-anchor="middle" x="496.75" y="-13.8" font-family="Times,serif" font-size="14.00">displayingResults</text>
</a>
</g>
</g>
<!-- App_FindMyRepresentatives_loadingResults&#45;&gt;App_FindMyRepresentatives_displayingResults -->
<g id="edge10" class="edge"><title>App_FindMyRepresentatives_loadingResults-&gt;App_FindMyRepresentatives_displayingResults</title>
<g id="a_edge10"><a xlink:title="From loadingResults to displayingResults on representativesReturned">
<path fill="none" stroke="black" d="M292.628,-97.1366C321.752,-91.3096 358.917,-82.5369 390.75,-70.8 406.091,-65.1439 408.827,-61.2577 423.478,-54 432.479,-49.5413 442.145,-44.8533 451.41,-40.4091"/>
<polygon fill="black" stroke="black" points="452.987,-43.5341 460.5,-36.0636 449.969,-37.2186 452.987,-43.5341"/>
</a>
</g>
<text text-anchor="middle" x="490.386" y="-58.2" font-family="Times,serif" font-size="14.00">representativesReturned</text>
</g>
<!-- App_FindMyRepresentatives_resultsError -->
<g id="node5" class="node"><title>App_FindMyRepresentatives_resultsError</title>
<g id="a_node5"><a xlink:title="Class App, SM FindMyRepresentatives, State resultsError">
<path fill="none" stroke="black" d="M117.83,-36C117.83,-36 59.6703,-36 59.6703,-36 53.6703,-36 47.6703,-30 47.6703,-24 47.6703,-24 47.6703,-12 47.6703,-12 47.6703,-6 53.6703,-0 59.6703,-0 59.6703,-0 117.83,-0 117.83,-0 123.83,-0 129.83,-6 129.83,-12 129.83,-12 129.83,-24 129.83,-24 129.83,-30 123.83,-36 117.83,-36"/>
<text text-anchor="middle" x="88.7503" y="-13.8" font-family="Times,serif" font-size="14.00">resultsError</text>
</a>
</g>
</g>
<!-- App_FindMyRepresentatives_loadingResults&#45;&gt;App_FindMyRepresentatives_resultsError -->
<g id="edge11" class="edge"><title>App_FindMyRepresentatives_loadingResults-&gt;App_FindMyRepresentatives_resultsError</title>
<g id="a_edge11"><a xlink:title="From loadingResults to resultsError on postalCodeDoesntExist">
<path fill="none" stroke="black" d="M193.027,-101.069C153.327,-96.147 102.275,-86.8548 89.3239,-70.8 83.8643,-64.0319 82.4469,-54.9871 82.7971,-46.3509"/>
<polygon fill="black" stroke="black" points="86.2991,-46.5303 83.9481,-36.1996 79.3437,-45.7416 86.2991,-46.5303"/>
</a>
</g>
<text text-anchor="middle" x="155.464" y="-58.2" font-family="Times,serif" font-size="14.00">postalCodeDoesntExist</text>
</g>
<!-- App_FindMyRepresentatives_loadingResults&#45;&gt;App_FindMyRepresentatives_resultsError -->
<g id="edge12" class="edge"><title>App_FindMyRepresentatives_loadingResults-&gt;App_FindMyRepresentatives_resultsError</title>
<g id="a_edge12"><a xlink:title="From loadingResults to resultsError on noRepresentativesReturned">
<path fill="none" stroke="black" d="M239.531,-88.5581C236.536,-77.1941 230.939,-62.8315 220.75,-54 198.511,-34.7221 166.8,-25.9106 140.034,-21.9478"/>
<polygon fill="black" stroke="black" points="140.414,-18.4679 130.047,-20.6547 139.515,-25.41 140.414,-18.4679"/>
</a>
</g>
<text text-anchor="middle" x="309.724" y="-58.2" font-family="Times,serif" font-size="14.00">noRepresentativesReturned</text>
</g>
<!-- App_FindMyRepresentatives_displayingResults&#45;&gt;App_FindMyRepresentatives_waitingForInput -->
<g id="edge6" class="edge"><title>App_FindMyRepresentatives_displayingResults-&gt;App_FindMyRepresentatives_waitingForInput</title>
<g id="a_edge6"><a xlink:title="From displayingResults to waitingForInput on back">
<path fill="none" stroke="black" d="M541.094,-36.1595C548.152,-40.8693 554.513,-46.7413 558.75,-54 582.718,-95.0533 576.563,-127.228 541.75,-159.6 524.872,-175.295 389.298,-185.978 306.612,-191.104"/>
<polygon fill="black" stroke="black" points="306.322,-187.615 296.554,-191.717 306.748,-194.603 306.322,-187.615"/>
</a>
</g>
<text text-anchor="middle" x="585.965" y="-102.6" font-family="Times,serif" font-size="14.00">back</text>
</g>
<!-- App_FindMyRepresentatives_resultsError&#45;&gt;App_FindMyRepresentatives_waitingForInput -->
<g id="edge7" class="edge"><title>App_FindMyRepresentatives_resultsError-&gt;App_FindMyRepresentatives_waitingForInput</title>
<g id="a_edge7"><a xlink:title="From resultsError to waitingForInput on back">
<path fill="none" stroke="black" d="M66.5777,-36.1859C33.103,-64.1581 -23.0233,-120.349 10.7503,-159.6 32.0666,-184.373 117.814,-191.841 178.844,-193.965"/>
<polygon fill="black" stroke="black" points="179.068,-197.474 189.17,-194.283 179.283,-190.477 179.068,-197.474"/>
</a>
</g>
<text text-anchor="middle" x="29.9649" y="-102.6" font-family="Times,serif" font-size="14.00">back</text>
</g>
</g>
</svg>